<svg xmlns="http://www.w3.org/2000/svg">
  <symbol id="dashboard" viewBox="0 0 24 24"><path d="M4 13h6V4H4v9Zm0 7h6v-4H4v4Zm10 0h6v-9h-6v9Zm0-16v4h6V4h-6Z" fill="none" stroke="currentColor" stroke-width="1.8" stroke-linejoin="round"/></symbol>
  <symbol id="projects" viewBox="0 0 24 24"><path d="M3.5 7.5h6l2-2h9v14h-17v-12Z" fill="none" stroke="currentColor" stroke-width="1.8" stroke-linejoin="round"/></symbol>
  <symbol id="tasks" viewBox="0 0 24 24"><path d="m4 7 2 2 3-4M12 7h8M4 14l2 2 3-4m3 2h8" fill="none" stroke="currentColor" stroke-width="1.8" stroke-linecap="round" stroke-linejoin="round"/></symbol>
  <symbol id="inbox" viewBox="0 0 24 24"><path d="M4 5h16v14H4V5Zm0 9h4l2 2h4l2-2h4" fill="none" stroke="currentColor" stroke-width="1.8" stroke-linejoin="round"/></symbol>
  <symbol id="decisions" viewBox="0 0 24 24"><path d="M12 3v5m0 13v-5M5 8h14l-7 8-7-8Z" fill="none" stroke="currentColor" stroke-width="1.8" stroke-linecap="round" stroke-linejoin="round"/></symbol>
  <symbol id="resources" viewBox="0 0 24 24"><path d="M6 3.5h9l3 3V20H6V3.5Zm9 0v4h3M9 12h6m-6 4h6" fill="none" stroke="currentColor" stroke-width="1.8" stroke-linejoin="round" stroke-linecap="round"/></symbol>
  <symbol id="registry" viewBox="0 0 24 24"><path d="M4 4h6v6H4V4Zm10 0h6v6h-6V4ZM4 14h6v6H4v-6Zm10 0h6v6h-6v-6Z" fill="none" stroke="currentColor" stroke-width="1.8" stroke-linejoin="round"/></symbol>
  <symbol id="releases" viewBox="0 0 24 24"><path d="M12 3 5 6.5v11L12 21l7-3.5v-11L12 3Zm-7 3.5 7 3.5 7-3.5M12 10v11" fill="none" stroke="currentColor" stroke-width="1.8" stroke-linejoin="round"/></symbol>
  <symbol id="search" viewBox="0 0 24 24"><circle cx="10.5" cy="10.5" r="6.5" fill="none" stroke="currentColor" stroke-width="1.8"/><path d="m15.5 15.5 4 4" fill="none" stroke="currentColor" stroke-width="1.8" stroke-linecap="round"/></symbol>
  <symbol id="logout" viewBox="0 0 24 24"><path d="M10 5H5v14h5m5-4 4-3-4-3m4 3H9" fill="none" stroke="currentColor" stroke-width="1.8" stroke-linecap="round" stroke-linejoin="round"/></symbol>
  <symbol id="chevron-down" viewBox="0 0 24 24"><path d="m6 9 6 6 6-6" fill="none" stroke="currentColor" stroke-width="2" stroke-linecap="round" stroke-linejoin="round"/></symbol>
  <symbol id="plus" viewBox="0 0 24 24"><path d="M12 5v14M5 12h14" fill="none" stroke="currentColor" stroke-width="2" stroke-linecap="round"/></symbol>
  <symbol id="arrow-right" viewBox="0 0 24 24"><path d="M5 12h14m-5-5 5 5-5 5" fill="none" stroke="currentColor" stroke-width="1.8" stroke-linecap="round" stroke-linejoin="round"/></symbol>
  <symbol id="alert" viewBox="0 0 24 24"><path d="M12 4 3.5 19h17L12 4Zm0 5v5m0 2.5v.5" fill="none" stroke="currentColor" stroke-width="1.8" stroke-linecap="round" stroke-linejoin="round"/></symbol>
  <symbol id="check" viewBox="0 0 24 24"><path d="m5 12 4 4L19 6" fill="none" stroke="currentColor" stroke-width="2" stroke-linecap="round" stroke-linejoin="round"/></symbol>
</svg>
